<svg xmlns="http://www.w3.org/2000/svg" version="1.1" xmlns:xlink="http://www.w3.org/1999/xlink" xmlns:svgjs="http://svgjs.dev/svgjs" viewBox="0 0 800 800"><g fill="hsl(190, 100%, 70%)"><path d="M356 324H406C434 324 456 346 456 374H406C378 374 356 352 356 324Z " transform="matrix(-0.15733169968431665,-0.45692443362641827,0.45692443362641827,-0.15733169968431665,310.4100427362126,589.4200832421524)"></path><path d="M719 162H769C797 162 819 184 819 212H769C741 212 719 190 719 162Z " transform="matrix(0.2880070824978086,-0.4793242781727359,0.4793242781727359,0.2880070824978086,457.8889135408836,501.74304548774364)"></path><path d="M151 9H201C229 9 251 31 251 59H201C173 59 151 37 151 9Z " transform="matrix(-0.3813647393913416,-0.13131441050745588,0.13131441050745588,-0.3813647393913416,273.1896226604062,73.36059765130425)"></path><path d="M505 151H555C583 151 605 173 605 201H555C527 201 505 179 505 151Z " transform="matrix(0.03622510464252907,-0.5180431316072747,0.5180431316072747,0.03622510464252907,443.71947576051605,457.1383196249524)"></path><path d="M328 12H378C406 12 428 34 428 62H378C350 62 328 40 328 12Z " transform="matrix(-0.37786936780009894,-0.16039603044818643,0.16039603044818643,-0.37786936780009894,514.8999679018546,111.61086611801814)"></path><path d="M601 453H651C679 453 701 475 701 503H651C623 503 601 481 601 453Z " transform="matrix(0.2517363012656006,-0.4940603094808774,0.4940603094808774,0.2517363012656006,250.95883994423463,679.3033094670941)"></path><path d="M373 548H423C451 548 473 570 473 598H423C395 598 373 576 373 548Z " transform="matrix(-0.15008709312954016,-0.4619205756672746,0.4619205756672746,-0.15008709312954016,221.80635053644713,854.3923078704837)"></path><path d="M231 436H281C309 436 331 458 331 486H281C253 486 231 464 231 436Z " transform="matrix(-0.13466664130033196,-0.46963838997432084,0.46963838997432084,-0.13466664130033196,102.33802842723136,655.0497092222372)"></path><path d="M-13 19H37C65 19 87 41 87 69H37C9 69 -13 47 -13 19Z " transform="matrix(-0.37398255226520793,-0.1743909281376184,0.1743909281376184,-0.37398255226520793,43.16415359575748,66.90769664076103)"></path><path d="M222 154H272C300 154 322 176 322 204H272C244 204 222 182 222 154Z " transform="matrix(-0.17232008765347603,-0.44890917597314717,0.44890917597314717,-0.17232008765347603,238.51632134255215,331.94859155466827)"></path><path d="M244 554H294C322 554 344 576 344 604H294C266 604 244 582 244 554Z " transform="matrix(-0.1420263884366323,-0.4645473845118038,0.4645473845118038,-0.1420263884366323,66.78282256803553,797.8102099512805)"></path><path d="M517 88H567C595 88 617 110 617 138H567C539 138 517 116 517 88Z " transform="matrix(-0.0265665369057857,-0.5069197220188685,0.5069197220188685,-0.0265665369057857,524.7812978374484,403.42550105505217)"></path><path d="M68 523H118C146 523 168 545 168 573H118C90 573 68 551 68 523Z " transform="matrix(0.06380303442335042,-0.5196340154997531,0.5196340154997531,0.06380303442335042,-174.2881985558201,574.3527509649749)"></path><path d="M479 275H529C557 275 579 297 579 325H529C501 325 479 303 479 275Z " transform="matrix(-9.414433531185529e-17,-0.5124978912417972,0.5124978912417972,-9.414433531185529e-17,375.2506326274609,571.1113844669107)"></path><path d="M344 111H394C422 111 444 133 444 161H394C366 161 344 139 344 111Z " transform="matrix(-0.2632081694484207,-0.3759002225560024,0.3759002225560024,-0.2632081694484207,446.5815884950614,319.9009987320501)"></path><path d="M54 134H104C132 134 154 156 154 184H104C76 184 54 162 54 134Z " transform="matrix(-0.008904740852538938,-0.5101522617738122,0.5101522617738122,-0.008904740852538938,23.811883426627915,213.47168902003014)"></path><path d="M285 317H335C363 317 385 339 385 367H335C307 367 285 345 285 317Z " transform="matrix(-0.1722532934420664,-0.4487351711034191,0.4487351711034191,-0.1722532934420664,239.2374247857229,551.2369086768322)"></path><path d="M714 242H764C792 242 814 264 814 292H764C736 292 714 270 714 242Z " transform="matrix(0.2973412684497642,-0.47584549880902227,0.47584549880902227,0.2973412684497642,409.7805227223712,551.155842414006)"></path><path d="M523 593H573C601 593 623 615 623 643H573C545 643 523 621 523 593Z " transform="matrix(0.10111639543260224,-0.5201987582032374,0.5201987582032374,0.10111639543260224,193.5774728475182,853.583956073107)"></path><path d="M131 457H181C209 457 231 479 231 507H181C153 507 131 485 131 457Z " transform="matrix(-0.008926326015435694,-0.511388874927961,0.511388874927961,-0.008926326015435694,-63.87377270648338,578.863875501401)"></path><path d="M580 193H630C658 193 680 215 680 243H630C602 243 580 221 580 193Z " transform="matrix(0.20455614770216946,-0.5062942319631217,0.5062942319631217,0.20455614770216946,390.75748437967275,492.3721259376938)"></path><path d="M652 683H702C730 683 752 705 752 733H702C674 733 652 711 652 683Z " transform="matrix(0.29766671526556576,-0.476366322585716,0.476366322585716,0.29766671526556576,155.7706094928859,831.661124047152)"></path><path d="M656 122H706C734 122 756 144 756 172H706C678 172 656 150 656 122Z " transform="matrix(0.2793923324939563,-0.48392171512470916,0.48392171512470916,0.2793923324939563,437.6125211359346,447.5780580014331)"></path><path d="M649 378H699C727 378 749 400 749 428H699C671 428 649 406 649 378Z " transform="matrix(0.2884929855053569,-0.48013295657861094,0.48013295657861094,0.2884929855053569,303.8498216305753,622.3502634897902)"></path><path d="M-12 480H38C66 480 88 502 88 530H38C10 530 -12 508 -12 480Z " transform="matrix(0.14811737243290402,-0.5165466640062724,0.5165466640062724,0.14811737243290402,-228.4845254756179,449.82950015362184)"></path><path d="M194 79H244C272 79 294 101 294 129H244C216 129 194 107 194 79Z " transform="matrix(-0.3002747386248543,-0.3334888826038278,0.3334888826038278,-0.3002747386248543,282.5841924336664,216.59986017231884)"></path><path d="M718 82H768C796 82 818 104 818 132H768C740 132 718 110 718 82Z " transform="matrix(0.30666782464023856,-0.47222703869273835,0.47222703869273835,0.30666782464023856,481.95081753617376,436.8569084795175)"></path><path d="M496 517H546C574 517 596 539 596 567H546C518 567 496 545 496 517Z " transform="matrix(0.03615169630365095,-0.516993343452519,0.516993343452519,0.03615169630365095,246.0507816669413,804.6841461284964)"></path><path d="M574 663H624C652 663 674 685 674 713H624C596 713 574 691 574 663Z " transform="matrix(0.20455614770216946,-0.5062942319631217,0.5062942319631217,0.20455614770216946,148.02653224321847,863.1929711258954)"></path><path d="M148 543H198C226 543 248 565 248 593H198C170 593 148 571 148 543Z " transform="matrix(-0.026549427559799596,-0.5065932562494699,0.5065932562494699,-0.026549427559799596,-84.48818289285862,683.3855395913612)"></path><path d="M295 169H345C373 169 395 191 395 219H345C317 219 295 197 295 169Z " transform="matrix(-0.1722532934420664,-0.4487351711034191,0.4487351711034191,-0.1722532934420664,317.3727630434496,382.2307729584405)"></path><path d="M-15 563H35C63 563 85 585 85 613H35C7 613 -15 591 -15 563Z " transform="matrix(0.14811737243290402,-0.5165466640062724,0.5165466640062724,0.14811737243290402,-273.9135464708398,518.9861182496719)"></path><path d="M233 368H283C311 368 333 390 333 418H283C255 418 233 396 233 368Z " transform="matrix(-0.13466664130033196,-0.46963838997432084,0.46963838997432084,-0.13466664130033196,136.54277222808585,578.8316543937632)"></path><path d="M324 247H374C402 247 424 269 424 297H374C346 297 324 275 324 247Z " transform="matrix(-0.172202437439245,-0.448602686686595,0.448602686686595,-0.172202437439245,316.3837808235238,486.6164678042611)"></path><path d="M709 738H759C787 738 809 760 809 788H759C731 788 709 766 709 738Z " transform="matrix(0.2973412684497642,-0.47584549880902227,0.47584549880902227,0.2973412684497642,170.247861655345,897.2953457688777)"></path><path d="M329 588H379C407 588 429 610 429 638H379C351 638 329 616 329 588Z " transform="matrix(-0.172202437439245,-0.448602686686595,0.448602686686595,-0.172202437439245,169.27127685059116,888.5805124044766)"></path><path d="M373 737H423C451 737 473 759 473 787H423C395 787 373 765 373 737Z " transform="matrix(-0.15008709312954016,-0.4619205756672746,0.4619205756672746,-0.15008709312954016,134.50336173533225,1071.7587684719667)"></path><path d="M718 652H768C796 652 818 674 818 702H768C740 702 718 680 718 652Z " transform="matrix(0.2880070824978086,-0.4793242781727359,0.4793242781727359,0.2880070824978086,222.30802431874088,850.1402507856446)"></path><path d="M56 439H106C134 439 156 461 156 489H106C78 489 56 467 56 439Z " transform="matrix(0.09153609797332254,-0.5191270082748508,0.5191270082748508,0.09153609797332254,-144.57775822470296,476.5547134175125)"></path><path d="M616 742H666C694 742 716 764 716 792H666C638 792 616 770 616 742Z " transform="matrix(0.2517363012656006,-0.4940603094808774,0.4940603094808774,0.2517363012656006,119.39936598527697,902.9624230435487)"></path><path d="M241 10H291C319 10 341 32 341 60H291C263 60 241 38 241 10Z " transform="matrix(-0.3831848662699395,-0.11715137028935407,0.11715137028935407,-0.3831848662699395,398.40649812442496,82.50251907364989)"></path><path d="M663 304H713C741 304 763 326 763 354H713C685 354 663 332 663 304Z " transform="matrix(0.29766671526556576,-0.476366322585716,0.476366322585716,0.29766671526556576,344.03911188495107,570.7168386812443)"></path><path d="M715 568H765C793 568 815 590 815 618H765C737 618 715 596 715 568Z " transform="matrix(0.2973412684497642,-0.47584549880902227,0.47584549880902227,0.2973412684497642,255.35754884218017,780.6984343981919)"></path><path d="M432 327H482C510 327 532 349 532 377H482C454 377 432 355 432 327Z " transform="matrix(-0.08628375875119444,-0.48933951233392947,0.48933951233392947,-0.08628375875119444,351.34126337653254,618.2335280253744)"></path><path d="M566 513H616C644 513 666 535 666 563H616C588 563 566 541 566 513Z " transform="matrix(0.17614207947931154,-0.5115537432402566,0.5115537432402566,0.17614207947931154,232.2805651774861,758.3526670761285)"></path><path d="M168 225H218C246 225 268 247 268 275H218C190 275 168 253 168 225Z " transform="matrix(-0.07808497769065287,-0.49300914616772595,0.49300914616772595,-0.07808497769065287,111.77023859463084,376.99723828722745)"></path><path d="M287 741H337C365 741 387 763 387 791H337C309 791 287 769 287 741Z " transform="matrix(-0.1722532934420664,-0.4487351711034191,0.4487351711034191,-0.1722532934420664,51.318218824757366,1049.169775438475)"></path><path d="M520 442H570C598 442 620 464 620 492H570C542 492 520 470 520 442Z " transform="matrix(0.10111639543260224,-0.5201987582032374,0.5201987582032374,0.10111639543260224,269.4308345225049,716.2919355088201)"></path><path d="M400 258H450C478 258 500 280 500 308H450C422 308 400 286 400 258Z " transform="matrix(-0.11080260052573507,-0.47993879098516573,0.47993879098516573,-0.11080260052573507,364.0384923877789,530.3295918921076)"></path><path d="M459 61H509C537 61 559 83 559 111H509C481 111 459 89 459 61Z " transform="matrix(-0.20736711188790058,-0.42516558612096594,0.42516558612096594,-0.20736711188790058,577.9856195445383,320.2428549579311)"></path><path d="M385 60H435C463 60 485 82 485 110H435C407 110 385 88 385 60Z " transform="matrix(-0.29984889989492913,-0.33301594078107394,0.33301594078107394,-0.29984889989492913,537.1279164879029,255.34909073083614)"></path><path d="M-4 737H46C74 737 96 759 96 787H46C18 787 -4 765 -4 737Z " transform="matrix(0.14811737243290402,-0.5165466640062724,0.5165466640062724,0.14811737243290402,-354.4219571046931,672.8957087504157)"></path><path d="M94 744H144C172 744 194 766 194 794H144C116 794 94 772 94 744Z " transform="matrix(0.04529237028502603,-0.5176941612738829,0.5176941612738829,0.04529237028502603,-260.62891134065967,808.7181264742541)"></path><path d="M330 672H380C408 672 430 694 430 722H380C352 722 330 700 330 672Z " transform="matrix(-0.172202437439245,-0.448602686686595,0.448602686686595,-0.172202437439245,132.7608536063564,987.4941198360598)"></path><path d="M149 683H199C227 683 249 705 249 733H199C171 733 149 711 149 683Z " transform="matrix(-0.026549427559799596,-0.5065932562494699,0.5065932562494699,-0.026549427559799596,-154.3846893402246,827.6090527059827)"></path><path d="M385 392H435C463 392 485 414 485 442H435C407 442 385 420 385 392Z " transform="matrix(-0.13473452341055825,-0.4698751230260025,0.4698751230260025,-0.13473452341055825,297.6715913817498,677.5799747785138)"></path><path d="M-16 654H34C62 654 84 676 84 704H34C6 704 -16 682 -16 654Z " transform="matrix(0.14811737243290402,-0.5165466640062724,0.5165466640062724,0.14811737243290402,-321.7711755229776,595.9908906942713)"></path><path d="M666 449H716C744 449 766 471 766 499H716C688 499 666 477 666 449Z " transform="matrix(0.29766671526556576,-0.476366322585716,0.476366322585716,0.29766671526556576,277.07299496422553,673.9842639354945)"></path><path d="M109 78H159C187 78 209 100 209 128H159C131 128 109 106 109 78Z " transform="matrix(-0.23964655473324958,-0.39883884405853737,0.39883884405853737,-0.23964655473324958,156.02340126455732,191.09897134283213)"></path><path d="M237 685H287C315 685 337 707 337 735H287C259 735 237 713 237 685Z " transform="matrix(-0.1420263884366323,-0.4645473845118038,0.4645473845118038,-0.1420263884366323,-2.067069522067186,944.1638351448964)"></path><path d="M371 184H421C449 184 471 206 471 234H421C393 234 371 212 371 184Z " transform="matrix(-0.15008709312954016,-0.4619205756672746,0.4619205756672746,-0.15008709312954016,387.64526589307604,434.8367648199966)"></path><path d="M488 664H538C566 664 588 686 588 714H538C510 714 488 692 488 664Z " transform="matrix(0.03615169630365095,-0.516993343452519,0.516993343452519,0.03615169630365095,162.34197374985013,942.2339000242398)"></path><path d="M427 128H477C505 128 527 150 527 178H477C449 178 427 156 427 128Z " transform="matrix(-0.1576290607654437,-0.4577880329128249,0.4577880329128249,-0.1576290607654437,482.14749294945443,395.4821379965303)"></path><path d="M585 124H635C663 124 685 146 685 174H635C607 174 585 152 585 124Z " transform="matrix(0.17643121847136572,-0.5123934638461406,0.5123934638461406,0.17643121847136572,446.6195501576078,448.08159799006575)"></path><path d="M422 2H472C500 2 522 24 522 52H472C444 52 422 30 422 2Z " transform="matrix(-0.33065387332606316,-0.2874330268899134,0.2874330268899134,-0.33065387332606316,620.3079364838742,171.59604327184283)"></path><path d="M574 52H624C652 52 674 74 674 102H624C596 102 574 80 574 52Z " transform="matrix(0.054527927270218476,-0.5187985729822034,0.5187985729822034,0.054527927270218476,550.027083263754,396.53165914108814)"></path><path d="M-15 302H35C63 302 85 324 85 352H35C7 352 -15 330 -15 302Z " transform="matrix(0.14811737243290402,-0.5165466640062724,0.5165466640062724,0.14811737243290402,-139.0948671652027,296.6447524546599)"></path><path d="M719 402H769C797 402 819 424 819 452H769C741 452 719 430 719 402Z " transform="matrix(0.2880070824978086,-0.4793242781727359,0.4793242781727359,0.2880070824978086,342.85108677942696,672.6213456882697)"></path></g><g fill="none" stroke-width="3" stroke="hsl(190, 100%, 70%)"><path d="M194 615H244C272 615 294 637 294 665H244C216 665 194 643 194 615Z " transform="matrix(-0.09451443241933542,-0.4862346028700448,0.4862346028700448,-0.09451443241933542,-44.12862432651082,819.1304798486656)"></path><path d="M519 340H569C597 340 619 362 619 390H569C541 390 519 368 519 340Z " transform="matrix(0.10111639543260224,-0.5201987582032374,0.5201987582032374,0.10111639543260224,321.5922242546677,624.0856090847423)"></path><path d="M468 386H518C546 386 568 408 568 436H518C490 436 468 414 468 386Z " transform="matrix(-9.414433531185529e-17,-0.5124978912417972,0.5124978912417972,-9.414433531185529e-17,307.3633666996214,676.473907663251)"></path><path d="M720 324H770C798 324 820 346 820 374H770C742 374 720 352 720 324Z " transform="matrix(0.2880070824978086,-0.4793242781727359,0.4793242781727359,0.2880070824978086,380.95037339440256,617.5652224012715)"></path><path d="M653 188H703C731 188 753 210 753 238H703C675 238 653 216 653 188Z " transform="matrix(0.29766671526556576,-0.476366322585716,0.476366322585716,0.29766671526556576,392.2742724575498,484.4825144261929)"></path><path d="M647 525H697C725 525 747 547 747 575H697C669 575 647 553 647 525Z " transform="matrix(0.2884929855053569,-0.48013295657861094,0.48013295657861094,0.2884929855053569,231.8472629845303,725.9815287073457)"></path><path d="M515 6H565C593 6 615 28 615 56H565C537 56 515 34 515 6Z " transform="matrix(-0.18660769709756336,-0.4396201846882168,0.4396201846882168,-0.18660769709756336,656.8051231347886,285.170242958867)"></path><path d="M192 745H242C270 745 292 767 292 795H242C214 795 192 773 192 745Z " transform="matrix(-0.09451443241933542,-0.4862346028700448,0.4862346028700448,-0.09451443241933542,-109.52815156445536,960.4448868574391)"></path><path d="M442 448H492C520 448 542 470 542 498H492C464 498 442 476 442 448Z " transform="matrix(-0.06114332931631792,-0.4979724557118294,0.4979724557118294,-0.06114332931631792,286.5415464719331,746.9232429768385)"></path><path d="M708 8H758C786 8 808 30 808 58H758C730 58 708 36 708 8Z " transform="matrix(0.24181817037329467,-0.49580072368004285,0.49580072368004285,0.24181817037329467,558.3404029756013,400.8369489271538)"></path><path d="M362 466H412C440 466 462 488 462 516H412C384 516 362 494 362 466Z " transform="matrix(-0.15733169968431665,-0.45692443362641827,0.45692443362641827,-0.15733169968431665,252.47076335936708,756.5027311990839)"></path><path d="M613 0H663C691 0 713 22 713 50H663C635 50 613 28 613 0Z " transform="matrix(0.0637627446864366,-0.5193058819248351,0.5193058819248351,0.0637627446864366,607.7426532247716,367.7057310990047)"></path><path d="M201 494H251C279 494 301 516 301 544H251C223 544 201 522 201 494Z " transform="matrix(-0.11897201491435726,-0.4771706890428461,0.4771706890428461,-0.11897201491435726,33.21038813026652,700.5163186903059)"></path><path d="M532 737H582C610 737 632 759 632 787H582C554 787 532 765 532 737Z " transform="matrix(0.10111639543260224,-0.5201987582032374,0.5201987582032374,0.10111639543260224,126.75880410735863,987.7049839546413)"></path><path d="M591 581H641C669 581 691 603 691 631H641C613 631 591 609 591 581Z " transform="matrix(0.23268532164571526,-0.4989952825702288,0.4989952825702288,0.23268532164571526,189.45756758753788,784.8486712102132)"></path><path d="M61 679H111C139 679 161 701 161 729H111C83 729 61 707 61 679Z " transform="matrix(0.09153609797332254,-0.5191270082748508,0.5191270082748508,0.09153609797332254,-264.6259207005337,697.1816849452894)"></path><path d="M428 512H478C506 512 528 534 528 562H478C450 562 428 540 428 512Z " transform="matrix(-0.08628375875119444,-0.48933951233392947,0.48933951233392947,-0.08628375875119444,256.4683185597508,817.2386653450096)"></path><path d="M127 299H177C205 299 227 321 227 349H177C149 349 127 327 127 299Z " transform="matrix(-0.008926326015435694,-0.511388874927961,0.511388874927961,-0.008926326015435694,12.889964228072728,417.40796049125026)"></path><path d="M-12 390H38C66 390 88 412 88 440H38C10 440 -12 418 -12 390Z " transform="matrix(0.14811737243290402,-0.5165466640062724,0.5165466640062724,0.14811737243290402,-181.99532571505335,373.1600636725832)"></path><path d="M85 210H135C163 210 185 232 185 260H135C107 260 85 238 85 210Z " transform="matrix(0.04529237028502603,-0.5176941612738829,0.5176941612738829,0.04529237028502603,7.227402112158998,294.24500475499303)"></path><path d="M447 587H497C525 587 547 609 547 637H497C469 637 447 615 447 587Z " transform="matrix(-0.06114332931631792,-0.4979724557118294,0.4979724557118294,-0.06114332931631792,222.62909177457038,896.9120280303657)"></path><path d="M295 497H345C373 497 395 519 395 547H345C317 547 295 525 295 497Z " transform="matrix(-0.1722532934420664,-0.4487351711034191,0.4487351711034191,-0.1722532934420664,170.18762692152814,766.7298532074383)"></path><path d="M651 610H701C729 610 751 632 751 660H701C673 660 651 638 651 610Z " transform="matrix(0.29766671526556576,-0.476366322585716,0.476366322585716,0.29766671526556576,189.84301775690875,779.9144279389527)"></path><path d="M271 624H321C349 624 371 646 371 674H321C293 674 271 652 271 624Z " transform="matrix(-0.16477076121226625,-0.4527039458170501,0.4527039458170501,-0.16477076121226625,80.08655351387193,901.2541906340338)"></path><path d="M154 382H204C232 382 254 404 254 432H204C176 432 154 410 154 382Z " transform="matrix(-0.05259469049351458,-0.5004050537123342,0.5004050537123342,-0.05259469049351458,11.064459999756934,530.4886699881766)"></path><path d="M446 201H496C524 201 546 223 546 251H496C468 251 446 229 446 201Z " transform="matrix(-0.06114332931631792,-0.4979724557118294,0.4979724557118294,-0.06114332931631792,413.78531635002025,486.8127304585552)"></path><path d="M249 235H299C327 235 349 257 349 285H299C271 285 249 263 249 235Z " transform="matrix(-0.1420263884366323,-0.4645473845118038,0.4645473845118038,-0.1420263884366323,220.68357016948408,435.82652896255377)"></path><path d="M142 149H192C220 149 242 171 242 199H192C164 199 142 177 142 149Z " transform="matrix(-0.06955512870394295,-0.49491045681657425,0.49491045681657425,-0.06955512870394295,119.24016522507311,281.12540010326836)"></path><path d="M-12 106H38C66 106 88 128 88 156H38C10 156 -12 134 -12 106Z " transform="matrix(-0.09447349824595384,-0.48602401480398416,0.48602401480398416,-0.09447349824595384,-22.079153005975677,161.84494083277136)"></path><path d="M557 271H607C635 271 657 293 657 321H607C579 321 557 299 557 271Z " transform="matrix(0.17614207947931154,-0.5115537432402566,0.5115537432402566,0.17614207947931154,348.66184975694193,554.3750666209595)"></path><path d="M404 650H454C482 650 504 672 504 700H454C426 700 404 678 404 650Z " transform="matrix(-0.11080260052573507,-0.47993879098516573,0.47993879098516573,-0.11080260052573507,180.34569672369685,967.6839664621364)"></path><path d="M46 601H96C124 601 146 623 146 651H96C68 651 46 629 46 601Z " transform="matrix(0.11027442761747584,-0.5188003924746812,0.5188003924746812,0.11027442761747584,-239.35539074042816,606.7730459890296)"></path><path d="M276 83H326C354 83 376 105 376 133H326C298 133 276 111 276 83Z " transform="matrix(-0.326444416191077,-0.293931872576893,0.293931872576893,-0.326444416191077,400.67623743998666,239.07778740870347)"></path><path d="M69 361H119C147 361 169 383 169 411H119C91 411 69 389 69 361Z " transform="matrix(0.06380303442335042,-0.5196340154997531,0.5196340154997531,0.06380303442335042,-89.1712910792834,423.20847655705734)"></path><path d="M596 325H646C674 325 696 347 696 375H646C618 375 596 353 596 325Z " transform="matrix(0.23268532164571526,-0.4989952825702288,0.4989952825702288,0.23268532164571526,321.0369333172879,590.9110899643674)"></path><path d="M62 19H112C140 19 162 41 162 69H112C84 69 62 47 62 19Z " transform="matrix(-0.37764343152181684,-0.16030012618798758,0.16030012618798758,-0.37764343152181684,147.24285877817204,78.56992512001456)"></path><path d="M450 735H500C528 735 550 757 550 785H500C472 785 450 763 450 735Z " transform="matrix(-0.06114332931631792,-0.4979724557118294,0.4979724557118294,-0.06114332931631792,152.1125983171686,1055.4551581363164)"></path><path d="M516 217H566C594 217 616 239 616 267H566C538 267 516 245 516 217Z " transform="matrix(0.07294170653403192,-0.5190072101712851,0.5190072101712851,0.07294170653403192,399.11524924028697,518.1061879757117)"></path><path d="M307 404H357C385 404 407 426 407 454H357C329 454 307 432 307 404Z " transform="matrix(-0.17210142020900712,-0.4483395278047566,0.4483395278047566,-0.17210142020900712,226.10254958637495,662.8887206959621)"></path><path d="M719 489H769C797 489 819 511 819 539H769C741 539 719 517 719 489Z " transform="matrix(0.2880070824978086,-0.4793242781727359,0.4793242781727359,0.2880070824978086,301.14987457839896,734.5647295109602)"></path><path d="M-9 204H41C69 204 91 226 91 254H41C13 254 -9 232 -9 204Z " transform="matrix(0.14811737243290402,-0.5165466640062724,0.5165466640062724,0.14811737243290402,-83.36199832718543,216.25953493712214)"></path><path d="M115 611H165C193 611 215 633 215 661H165C137 661 115 639 115 611Z " transform="matrix(0.017994920807879747,-0.5153071100604482,0.5153071100604482,0.017994920807879747,-165.7044839317452,709.5809035261624)"></path><path d="M648 56H698C726 56 748 78 748 106H698C670 106 648 84 648 56Z " transform="matrix(0.2046603517741025,-0.5065521460916357,0.5065521460916357,0.2046603517741025,514.1163506282539,417.99590947825936)"></path><path d="M51 277H101C129 277 151 299 151 327H101C73 327 51 305 51 277Z " transform="matrix(0.09153609797332254,-0.5191270082748508,0.5191270082748508,0.09153609797332254,-65.02150239431052,326.78792624781653)"></path><path d="M628 250H678C706 250 728 272 728 300H678C650 300 628 278 628 250Z " transform="matrix(0.27885503896485,-0.48299109543371904,0.48299109543371904,0.27885503896485,356.113732337559,525.7828269887278)"></path><path d="M204 301H254C282 301 304 323 304 351H254C226 351 204 329 204 301Z " transform="matrix(-0.11897201491435726,-0.4771706890428461,0.4771706890428461,-0.11897201491435726,128.6612471602789,485.9862318789634)"></path><path d="M571 390H621C649 390 671 412 671 440H621C593 440 571 418 571 390Z " transform="matrix(0.20455614770216946,-0.5062942319631217,0.5062942319631217,0.20455614770216946,283.8585260122572,644.5179167526983)"></path></g></svg>